<svg xmlns="http://www.w3.org/2000/svg" version="1.1" id="Layer_1" x="0" y="0" viewBox="0 0 100 100" xml:space="preserve"><circle cx="50" cy="50" r="40" fill="#333"/><path d="M67.582 31.535H32.418A4.423 4.423 0 0 0 28 35.953v20.779a4.423 4.423 0 0 0 4.418 4.418h14.585v6.77H43.21a5.1 5.1 0 0 0-4.924 3.775l-.274 1.02h23.975l-.274-1.02a5.1 5.1 0 0 0-4.924-3.775h-3.793v-6.77h14.585a4.423 4.423 0 0 0 4.418-4.418V35.953a4.422 4.422 0 0 0-4.417-4.418zm1.176 25.197c0 .649-.527 1.176-1.176 1.176H32.418a1.177 1.177 0 0 1-1.176-1.176V35.953c0-.649.527-1.176 1.176-1.176h35.164c.649 0 1.176.527 1.176 1.176v20.779z" fill="#fff"/><g><path fill="#fff" d="M59.628 46.342l-3.735 5.18 1.736 1.253 4.642-6.433-4.642-6.433-1.736 1.253z"/><path fill="#fff" d="M44.107 41.162l-1.736-1.253-4.642 6.433 4.642 6.433 1.736-1.253-3.735-5.18z"/><path transform="rotate(-70.925 50.002 46.342)" fill="#fff" d="M41.729 45.271h16.543v2.144H41.729z"/></g></svg>