<svg xmlns="http://www.w3.org/2000/svg" xmlns:xlink="http://www.w3.org/1999/xlink" width="1080" zoomAndPan="magnify" viewBox="0 0 810 809.999993" height="1080" preserveAspectRatio="xMidYMid meet" version="1.0"><defs><g/></defs><g fill="#ffffff" fill-opacity="1"><g transform="translate(12.467384, 604.488855)"><g><path d="M 180.796875 -414.9375 C 218.441406 -414.9375 249.75 -410.347656 274.71875 -401.171875 C 299.695312 -391.992188 318.476562 -378.320312 331.0625 -360.15625 C 343.644531 -341.988281 349.9375 -319.378906 349.9375 -292.328125 C 349.9375 -275.484375 347.097656 -260.15625 341.421875 -246.34375 C 335.742188 -232.53125 327.65625 -220.1875 317.15625 -209.3125 C 306.65625 -198.4375 294.125 -188.929688 279.5625 -180.796875 L 400.453125 0 L 273.3125 0 L 185.328125 -150.984375 L 156.953125 -150.984375 L 156.953125 0 L 44.84375 0 L 44.84375 -414.9375 Z M 179.09375 -330.078125 L 156.953125 -330.078125 L 156.953125 -235.28125 L 177.953125 -235.28125 C 195.171875 -235.28125 209.265625 -239.0625 220.234375 -246.625 C 231.210938 -254.195312 236.703125 -267.726562 236.703125 -287.21875 C 236.703125 -300.65625 232.160156 -311.15625 223.078125 -318.71875 C 213.992188 -326.289062 199.332031 -330.078125 179.09375 -330.078125 Z M 179.09375 -330.078125 "/></g></g><g transform="translate(405.83337, 604.488855)"><g><path d="M 44.84375 -414.9375 L 189.59375 -414.9375 C 249.570312 -414.9375 292.332031 -406.039062 317.875 -388.25 C 343.414062 -370.46875 356.1875 -344.925781 356.1875 -311.625 C 356.1875 -293.457031 352.921875 -278.035156 346.390625 -265.359375 C 339.867188 -252.679688 331.640625 -242.65625 321.703125 -235.28125 C 311.765625 -227.90625 301.59375 -222.890625 291.1875 -220.234375 L 291.1875 -217.40625 C 302.539062 -214.5625 313.847656 -209.875 325.109375 -203.34375 C 336.367188 -196.820312 345.734375 -187.078125 353.203125 -174.109375 C 360.679688 -161.148438 364.421875 -143.601562 364.421875 -121.46875 C 364.421875 -96.300781 358.035156 -74.632812 345.265625 -56.46875 C 332.492188 -38.3125 314.28125 -24.359375 290.625 -14.609375 C 266.96875 -4.867188 238.867188 0 206.328125 0 L 44.84375 0 Z M 156.953125 -255.71875 L 190.71875 -255.71875 C 209.257812 -255.71875 222.3125 -259.546875 229.875 -267.203125 C 237.445312 -274.867188 241.234375 -284.191406 241.234375 -295.171875 C 241.234375 -306.515625 236.929688 -315.164062 228.328125 -321.125 C 219.722656 -327.09375 206.429688 -330.078125 188.453125 -330.078125 L 156.953125 -330.078125 Z M 156.953125 -173.6875 L 156.953125 -86.5625 L 196.40625 -86.5625 C 215.882812 -86.5625 229.503906 -90.769531 237.265625 -99.1875 C 245.023438 -107.613281 248.90625 -118.164062 248.90625 -130.84375 C 248.90625 -138.21875 247.25 -145.164062 243.9375 -151.6875 C 240.625 -158.21875 234.992188 -163.515625 227.046875 -167.578125 C 219.097656 -171.648438 208.125 -173.6875 194.125 -173.6875 Z M 156.953125 -173.6875 "/></g></g></g></svg>